IKResults
version=1
nRows=14
nColumns=42
inDegrees=yes

Units are S.I. units (second, meters, Newtons, ...)
Angles are in degrees.

endheader
time	pelvis_tilt	pelvis_list	pelvis_rotation	pelvis_tx	pelvis_ty	pelvis_tz	hip_flexion_r	hip_adduction_r	hip_rotation_r	knee_angle_r	knee_adduction_r	knee_angle_r_beta	ankle_angle_r	subtalar_angle_r	mtp_angle_r	hip_flexion_l	hip_adduction_l	hip_rotation_l	knee_angle_l	knee_adduction_l	knee_angle_l_beta	ankle_angle_l	subtalar_angle_l	mtp_angle_l	lumbar_extension	lumbar_bending	lumbar_rotation	arm_flex_r	arm_add_r	arm_rot_r	elbow_flex_r	pro_sup_r	wrist_flex_r	wrist_dev_r	arm_flex_l	arm_add_l	arm_rot_l	elbow_flex_l	pro_sup_l	wrist_flex_l	wrist_dev_l
      3.64832877	     -3.58704150	     -2.24505589	      4.74335862	      0.56878779	      0.96107576	      0.05437716	      5.85636041	     -0.89777670	    -15.90295142	      9.31296829	      6.47602164	      0.16254196	     10.54498139	     -9.34354756	     13.49370996	     32.60142360	     -8.98124401	    -12.05415608	     14.44680251	      5.09547410	      0.25214427	    -23.86012449	     -9.15202033	      8.53968657	    -16.06636597	      0.43594621	     -8.07646703	     -8.03644181	    -30.83047344	     31.59008140	     98.08656254	     87.43548563	      0.00000000	      0.00000000	    -11.13105996	    -33.62810661	     84.19237769	      2.95215363	     85.44960010	      0.00000000	      0.00000000
      3.65498630	     -3.58354975	     -2.25350275	      4.76892682	      0.56875679	      0.96108253	      0.05431356	      5.84564060	     -0.88715084	    -15.93241382	      9.29981258	      6.47602164	      0.16231235	     10.61335805	     -9.33913791	     13.82532267	     32.61092712	     -8.96329485	    -11.98581593	     14.46638784	      5.09547410	      0.25248610	    -24.02785389	     -9.13863264	      8.64663477	    -16.07778246	      0.45837997	     -8.13239268	     -7.98867475	    -30.84023413	     31.64458232	     98.10044583	     87.40719852	      0.00000000	      0.00000000	    -11.15261232	    -33.58471801	     83.81921403	      2.94177320	     85.73823464	      0.00000000	      0.00000000
      3.66164384	     -3.51529125	     -2.18486874	      4.74093060	      0.56872549	      0.96122572	      0.05432384	      5.77385951	     -0.96223501	    -15.93566063	      9.31361758	      6.47602164	      0.16255329	     10.56242372	     -9.33927403	     13.62441942	     32.49093857	     -8.90546262	    -12.02350829	     14.41979589	      5.09547410	      0.25167292	    -24.25933658	     -9.12637310	      8.61170605	    -16.17779616	      0.38194021	     -8.13583407	     -7.94578371	    -30.82301905	     31.63216765	     98.10767961	     87.34924836	      0.00000000	      0.00000000	    -11.13185935	    -33.60638802	     83.53909079	      2.98090249	     85.98212979	      0.00000000	      0.00000000
      3.66830137	     -3.60302089	     -2.23837171	      4.69894921	      0.56867800	      0.96106008	      0.05429779	      5.89423305	     -0.91665993	    -15.86780695	      9.33681815	      6.47602164	      0.16295822	     10.60620902	     -9.34171793	     13.78903314	     32.60424119	     -8.95971265	    -11.99637224	     14.43762570	      5.09547410	      0.25198410	    -24.60910539	     -9.12141792	      8.11483197	    -16.07273419	      0.43273069	     -8.08626714	     -7.97631993	    -30.85268998	     31.64953322	     98.11424920	     87.42001065	      0.00000000	      0.00000000	    -11.18448170	    -33.60039800	     84.02701230	      2.88057694	     85.61342284	      0.00000000	      0.00000000
      3.67495890	     -3.65471355	     -2.26688289	      4.74270775	      0.56863997	      0.96096109	      0.05418236	      5.94964343	     -0.89923265	    -15.93103809	      9.33786591	      6.47602164	      0.16297651	     10.59657873	     -9.33916936	     13.66552619	     32.68989932	     -8.94165646	    -11.87674791	     14.46464183	      5.09547410	      0.25245563	    -24.77448449	     -9.10688787	      8.23759106	    -16.00987463	      0.47673388	     -8.12408646	     -7.99345833	    -30.86820475	     31.66624533	     98.11440722	     87.42081671	      0.00000000	      0.00000000	    -11.16622055	    -33.56533624	     83.89707714	      2.94382925	     85.65448511	      0.00000000	      0.00000000
      3.68161644	     -3.69105778	     -2.26827945	      4.75435320	      0.56865315	      0.96091984	      0.05410832	      5.99050480	     -0.90833206	    -15.97621084	      9.34256819	      6.47602164	      0.16305858	     10.55631358	     -9.33484619	     13.60447022	     32.73009150	     -8.91635484	    -11.82491002	     14.45852011	      5.09547410	      0.25234878	    -25.02503854	     -9.10016891	      8.15646170	    -15.96687706	      0.48351901	     -8.21003759	     -7.90805578	    -30.88236984	     31.84654974	     98.00393686	     87.48793205	      0.00000000	      0.00000000	    -11.25416770	    -33.53008943	     83.80531776	      2.93180702	     85.62885035	      0.00000000	      0.00000000
      3.68827397	     -3.62962476	     -2.20850608	      4.72839679	      0.56865183	      0.96104656	      0.05410100	      5.91905205	     -0.97493864	    -15.98473492	      9.33716066	      6.47602164	      0.16296420	     10.46584878	     -9.33485544	     13.50032234	     32.61491566	     -8.86103782	    -11.86256337	     14.39826793	      5.09547410	      0.25129718	    -25.29693471	     -9.08342500	      8.01076253	    -16.04925640	      0.42161063	     -8.16909426	     -7.92777500	    -30.85115532	     31.72243713	     98.11689383	     87.38927088	      0.00000000	      0.00000000	    -11.22821301	    -33.58075620	     83.98087873	      2.94549697	     85.57052835	      0.00000000	      0.00000000
      3.69493151	     -3.65908437	     -2.23864976	      4.70277537	      0.56856530	      0.96097330	      0.05408132	      5.96646534	     -0.94223841	    -15.91882900	      9.34968720	      6.47602164	      0.16318283	     10.57356556	     -9.33769706	     13.71500399	     32.67174186	     -8.88254850	    -11.80538811	     14.43678634	      5.09547410	      0.25196946	    -25.40967011	     -9.07030911	      8.15171308	    -16.03002920	      0.45785932	     -8.08053330	     -8.03418638	    -30.86365844	     31.55415297	     98.28233885	     87.32951512	      0.00000000	      0.00000000	    -11.13080858	    -33.56518160	     83.78898590	      2.96791899	     85.79894484	      0.00000000	      0.00000000
      3.70158904	     -3.70830229	     -2.23060361	      4.65658192	      0.56852899	      0.96091782	      0.05404666	      6.04688003	     -0.96362348	    -15.89308417	      9.39529237	      6.47602164	      0.16397879	     10.58125103	     -9.33349377	     13.72175936	     32.70622767	     -8.87198867	    -11.81151541	     14.41195731	      5.09547410	      0.25153611	    -25.68025359	     -9.06404337	      7.94913512	    -15.97787524	      0.44062811	     -8.11218987	     -7.94527869	    -30.88921180	     31.74420205	     98.15725166	     87.41594704	      0.00000000	      0.00000000	    -11.23323483	    -33.53860608	     83.98330187	      2.93056202	     85.53473988	      0.00000000	      0.00000000
      3.70824658	     -3.69579684	     -2.21663654	      4.63510017	      0.56848975	      0.96094348	      0.05404200	      6.03855696	     -0.97963224	    -15.88615295	      9.39703745	      6.47602164	      0.16400924	     10.51725427	     -9.33253052	     13.45932038	     32.68256176	     -8.85542157	    -11.80896218	     14.39626198	      5.09547410	      0.25126217	    -25.94293724	     -9.04931832	      7.70043700	    -15.99765369	      0.42684573	     -8.11934616	     -7.90435340	    -30.90634765	     31.82564607	     98.12455684	     87.44268700	      0.00000000	      0.00000000	    -11.26428117	    -33.54328117	     83.94810320	      2.91268322	     85.57469809	      0.00000000	      0.00000000
      3.71490411	     -3.74103343	     -2.21931377	      4.58862068	      0.56847251	      0.96087867	      0.05403001	      6.10314777	     -0.98511978	    -15.82620977	      9.41111347	      6.47602164	      0.16425492	     10.49759313	     -9.33723512	     13.40863510	     32.72194172	     -8.85563844	    -11.79883995	     14.38948105	      5.09547410	      0.25114382	    -26.15434118	     -9.03519993	      7.50982060	    -15.95235797	      0.42692261	     -8.02590843	     -8.00576494	    -30.89491559	     31.68119600	     98.23996394	     87.41842551	      0.00000000	      0.00000000	    -11.21893796	    -33.56331016	     84.21018437	      2.93545490	     85.41910637	      0.00000000	      0.00000000
      3.72156164	     -3.80714882	     -2.24458138	      4.57738229	      0.56843746	      0.96076542	      0.05394229	      6.19743062	     -0.97313987	    -15.81991125	      9.45001095	      6.47602164	      0.16493381	     10.56791024	     -9.33226678	     13.66562111	     32.81631613	     -8.85385585	    -11.74410321	     14.41854339	      5.09547410	      0.25165106	    -26.28961047	     -9.01994561	      7.57932320	    -15.86761662	      0.45685228	     -8.09801039	     -7.90552504	    -30.94918727	     31.91160412	     98.11038155	     87.48232290	      0.00000000	      0.00000000	    -11.30842354	    -33.48970828	     83.92120567	      2.92384315	     85.54016501	      0.00000000	      0.00000000
      3.72821918	     -3.77570783	     -2.23079930	      4.61641500	      0.56844466	      0.96084087	      0.05385925	      6.13747616	     -0.98804475	    -15.87047479	      9.40712209	      6.47602164	      0.16418525	     10.55376526	     -9.33076523	     13.58651307	     32.76973165	     -8.79337328	    -11.64967492	     14.36942951	      5.09547410	      0.25079386	    -26.49735961	     -9.00661043	      7.51393165	    -15.91380013	      0.45537758	     -8.12638566	     -7.92993059	    -30.93246032	     31.85178769	     98.20885656	     87.42385545	      0.00000000	      0.00000000	    -11.30574701	    -33.51539438	     84.03413574	      2.91791122	     85.49049677	      0.00000000	      0.00000000
      3.73487671	     -3.73462588	     -2.18235926	      4.61653635	      0.56841711	      0.96092116	      0.05383400	      6.09421176	     -1.04030849	    -15.91557217	      9.42465880	      6.47602164	      0.16449133	     10.58861856	     -9.32617069	     13.80503225	     32.70721127	     -8.72835371	    -11.62915068	     14.34382229	      5.09547410	      0.25034693	    -26.70252675	     -8.99637511	      7.40163502	    -15.96808901	      0.41290094	     -8.19058611	     -7.82755803	    -30.91885924	     31.96667620	     98.09419120	     87.49156623	      0.00000000	      0.00000000	    -11.34198924	    -33.49941770	     83.78815487	      2.92705076	     85.63906649	      0.00000000	      0.00000000
